<?xml version="1.0" encoding="UTF-8"?>
<svg xmlns="http://www.w3.org/2000/svg" version="1.1" viewBox="0 0 80 80">
  <!-- Generator: Adobe Illustrator 28.7.1, SVG Export Plug-In . SVG Version: 1.2.0 Build 142)  -->
  <g>
    <g id="Capa_1">
      <path d="M58.7,19.3H21.3c-3.4,0-6.2,2.7-6.2,6.1v22c0,3.4,2.8,6.2,6.2,6.2h33.6c.2,0,.4,0,.6.2l9.4,6.9V25.4c0-3.4-2.7-6.1-6.2-6.1ZM30.5,34.5c0,1.3-1.1,2.4-2.4,2.4s-2.4-1.1-2.4-2.4v-1.9c0-1.3,1.1-2.4,2.4-2.4s2.4,1.1,2.4,2.4v1.9ZM40,47.9c-4.5,0-9.3-1.2-9.3-4s.4-1,1-1,1,.4,1,1,2.5,2,7.3,2,7.4-1.4,7.4-2,.4-1,1-1,1,.4,1,1c0,2.8-4.9,4-9.4,4ZM54.4,34.5c0,1.3-1.1,2.4-2.4,2.4s-2.4-1.1-2.4-2.4v-1.9c0-1.3,1.1-2.4,2.4-2.4s2.4,1.1,2.4,2.4v1.9Z"/>
    </g>
  </g>
</svg>