<?xml version="1.0" encoding="UTF-8"?>
<svg xmlns="http://www.w3.org/2000/svg" version="1.1" viewBox="0 0 110 110">
  <defs>
    <style>
      .cls-1 {
        fill: #eebe44;
      }
    </style>
  </defs>
  <!-- Generator: Adobe Illustrator 28.7.1, SVG Export Plug-In . SVG Version: 1.2.0 Build 142)  -->
  <g>
    <g id="Capa_1">
      <g id="Capa_1-2" data-name="Capa_1">
        <circle class="cls-1" cx="55" cy="55" r="55"/>
        <path d="M80.4,44.8c-.8-.4-1.7-.7-2.6-.9-.8-.2-1.7-.3-2.6-.4,0-4.3-1.7-7.9-4.9-10.6-2.3-2-5-3-8.1-3.2-6.7-.3-13,4.3-14.2,11.6-8.1-1.2-14.7,4.6-15.1,11.8-1.3,0-2.6,0-3.9,0-3.8.5-6.6,4-6.6,7.9s2.9,7.3,6.6,7.9c.6,0,1.2,0,1.8,0h43.9c6.2,0,11.3-4,12.7-9.7,1.4-6-1.4-11.8-7-14.6h0ZM51.1,61c0,.2-.3.4-.4.6-.2.2-.4.3-.7.4h-.7c-.3,0-.5,0-.7-.2-.2,0-.4-.3-.6-.4l-5.2-5.5c-.3-.3-.5-.8-.5-1.2s.2-.9.5-1.2l5.2-5.5c.3-.4.8-.6,1.3-.6h0c.3,0,.7,0,.9.2.3.2.6.4.8.8.2.3.2.7.2,1s-.2.7-.5,1l-4.1,4.3,4.1,4.3c.2.2.3.4.4.6,0,.2,0,.5,0,.7s0,.5-.2.7h0ZM64.5,48.6l-7.8,13.5c-.2.4-.7.7-1.1.9h-.5c-.3,0-.6,0-.9-.2-.4-.2-.8-.6-.9-1.1,0-.5,0-1,.2-1.4l7.9-13.5c.2-.3.4-.5.7-.7s.6-.3,1-.3.7,0,.9.2c.3.2.5.4.7.7s.3.6.3.9,0,.6-.3.9h-.2ZM75,55.9l-5.2,5.5c-.2.2-.3.3-.6.4-.2,0-.5.2-.7.2h-.7c-.2,0-.5-.2-.7-.4s-.3-.4-.4-.6c0-.2-.2-.5-.2-.7s0-.5,0-.7c0-.2.2-.4.4-.6l4.1-4.3-4.1-4.3c-.2-.2-.4-.6-.5-.9,0-.3,0-.7,0-1s.4-.6.6-.8c.3-.2.6-.3,1-.3h0c.2,0,.5,0,.7,0,.3,0,.5.3.7.5l5.2,5.5c.3.3.5.8.5,1.2s-.2.9-.5,1.2h0Z"/>
      </g>
    </g>
  </g>
</svg>